<svg width="45" height="45" viewBox="0 0 45 45" fill="none" xmlns="http://www.w3.org/2000/svg">
<rect width="45" height="45" rx="8" fill="#1a1a1a"/>
<path d="M9.64922 22.2026C10.0203 22.2026 10.3406 22.1569 10.61 22.0654C10.8794 21.9688 11.1006 21.8392 11.2734 21.6765C11.4462 21.5087 11.5733 21.313 11.6547 21.0893C11.736 20.8657 11.7767 20.6217 11.7767 20.3573C11.7767 19.8337 11.6013 19.427 11.2505 19.1373C10.9049 18.8475 10.3762 18.7026 9.66448 18.7026H8.47494V22.2026H9.64922ZM15.0098 28.0283H12.9433C12.557 28.0283 12.2774 27.8809 12.1046 27.5861L9.99999 24.1928C9.91357 24.0606 9.81698 23.9641 9.71023 23.9031C9.60856 23.8421 9.45605 23.8116 9.25271 23.8116H8.47494V28.0283H6.18736V16.9641H9.66448C10.4372 16.9641 11.098 17.0454 11.647 17.2081C12.1961 17.3657 12.646 17.5868 12.9967 17.8715C13.3475 18.1562 13.6042 18.4968 13.7669 18.8933C13.9295 19.2847 14.0109 19.7168 14.0109 20.1896C14.0109 20.5556 13.9575 20.9038 13.8507 21.2342C13.7491 21.5596 13.5991 21.8569 13.4009 22.1264C13.2026 22.3958 12.9586 22.6347 12.6688 22.8431C12.3791 23.0516 12.0486 23.2193 11.6775 23.3464C11.825 23.4277 11.9622 23.5269 12.0893 23.6438C12.2164 23.7556 12.3308 23.8903 12.4324 24.0479L15.0098 28.0283ZM18.3941 28.0283H16.0913V16.9641H18.3941V28.0283ZM26.7016 19.0839C26.6304 19.2008 26.5567 19.2872 26.4804 19.3432C26.4093 19.394 26.3152 19.4194 26.1983 19.4194C26.0865 19.4194 25.9644 19.3813 25.8323 19.305C25.7052 19.2237 25.5552 19.1373 25.3824 19.0458C25.2095 18.9543 25.0113 18.8704 24.7876 18.7941C24.5639 18.7128 24.3021 18.6721 24.0022 18.6721C23.4735 18.6721 23.077 18.7916 22.8127 19.0305C22.5483 19.2644 22.4162 19.5719 22.4162 19.9532C22.4162 20.1972 22.4873 20.4005 22.6297 20.5632C22.7771 20.7208 22.9677 20.858 23.2016 20.975C23.4405 21.0919 23.7099 21.1961 24.0098 21.2876C24.3098 21.3791 24.6173 21.4808 24.9325 21.5926C25.2477 21.6994 25.5552 21.8264 25.8552 21.9739C26.1551 22.1213 26.422 22.3068 26.6558 22.5305C26.8947 22.7542 27.0854 23.0287 27.2277 23.354C27.3751 23.6743 27.4488 24.0657 27.4488 24.5283C27.4488 25.0316 27.3599 25.5044 27.1819 25.9466C27.0091 26.3838 26.7575 26.7676 26.427 27.098C26.0966 27.4234 25.6874 27.6801 25.1994 27.8682C24.7164 28.0563 24.1674 28.1503 23.5523 28.1503C23.2016 28.1503 22.8508 28.1147 22.5 28.0436C22.1544 27.9724 21.8189 27.8733 21.4935 27.7462C21.1732 27.6191 20.8708 27.4666 20.5861 27.2887C20.3014 27.1107 20.0523 26.9125 19.8388 26.6939L20.5099 25.6111C20.5658 25.5298 20.6395 25.4637 20.731 25.4129C20.8225 25.3569 20.9191 25.329 21.0207 25.329C21.158 25.329 21.3029 25.3798 21.4554 25.4815C21.6079 25.5832 21.7833 25.695 21.9815 25.817C22.1798 25.939 22.4085 26.0508 22.6678 26.1525C22.9321 26.2542 23.2473 26.305 23.6133 26.305C24.1471 26.305 24.5589 26.183 24.8486 25.939C25.1435 25.695 25.2909 25.3315 25.2909 24.8486C25.2909 24.569 25.2172 24.3428 25.0698 24.1699C24.9274 23.9971 24.7393 23.8522 24.5055 23.7353C24.2716 23.6184 24.0048 23.5193 23.7048 23.4379C23.4049 23.3515 23.0974 23.2575 22.7822 23.1558C22.467 23.0541 22.1594 22.9321 21.8595 22.7898C21.5596 22.6474 21.2927 22.4593 21.0589 22.2255C20.825 21.9917 20.6344 21.7019 20.487 21.3562C20.3446 21.0105 20.2735 20.581 20.2735 20.0676C20.2735 19.6558 20.3548 19.2567 20.5175 18.8704C20.6801 18.484 20.9191 18.1409 21.2342 17.841C21.5494 17.5411 21.9358 17.2996 22.3933 17.1166C22.8559 16.9336 23.3846 16.8421 23.9793 16.8421C24.6453 16.8421 25.2604 16.9463 25.8247 17.1547C26.394 17.358 26.8744 17.6427 27.2658 18.0087L26.7016 19.0839ZM34.7105 23.8268L33.5133 20.4412C33.4421 20.2633 33.3659 20.0548 33.2845 19.8159C33.2083 19.577 33.1346 19.3177 33.0634 19.0381C32.9922 19.3228 32.916 19.5872 32.8346 19.8312C32.7584 20.0701 32.6847 20.2785 32.6135 20.4564L31.424 23.8268H34.7105ZM38.5536 28.0283H36.7769C36.5786 28.0283 36.416 27.9826 36.2889 27.8911C36.1669 27.7945 36.0754 27.6725 36.0144 27.5251L35.2671 25.4129H30.8597L30.1124 27.5251C30.0616 27.6521 29.9726 27.7691 29.8455 27.8758C29.7185 27.9775 29.5583 28.0283 29.3652 28.0283H27.5732L31.8967 16.9641H34.2377L38.5536 28.0283Z" fill="white"/>
</svg>
